<?xml version="1.0" encoding="utf-8"?>
<!-- Generator: Adobe Illustrator 23.0.1, SVG Export Plug-In . SVG Version: 6.00 Build 0)  -->
<svg version="1.1" id="Ebene_1" xmlns="http://www.w3.org/2000/svg" xmlns:xlink="http://www.w3.org/1999/xlink" x="0px" y="0px"
	 viewBox="0 0 512 512" style="enable-background:new 0 0 512 512;" xml:space="preserve">
<style type="text/css">
	.st0{fill:#2193AE;}
</style>
<g>
	<path class="st0" d="M53.38,482.46V45.69c0-15.37,4.3-26.79,12.93-34.24C74.92,4,85.75,0.27,98.8,0.27
		c17.23,0,30.51,3.04,39.83,9.08c9.31,6.06,19.57,19.11,30.75,39.13l85.96,156.54L341.3,48.49c11.18-20.03,21.54-33.07,31.1-39.13
		c9.54-6.05,22.94-9.08,40.18-9.08c13.04,0,23.87,3.73,32.5,11.18C453.69,18.91,458,30.32,458,45.69v436.77
		c0,8.86-4.54,15.84-13.63,20.97c-9.08,5.13-19.69,7.69-31.8,7.69c-12.58,0-23.3-2.56-32.15-7.69
		c-8.86-5.12-13.28-12.11-13.28-20.97v-300.5l-81.76,145.36c-6.53,12.12-16.77,18.17-30.75,18.17c-13.52,0-23.53-6.05-30.05-18.17
		l-80.37-150.95v306.09c0,8.86-4.54,15.84-13.63,20.97c-9.08,5.13-19.69,7.69-31.8,7.69c-12.58,0-23.3-2.56-32.15-7.69
		C57.8,498.3,53.38,491.31,53.38,482.46z"/>
</g>
<g>
</g>
<g>
</g>
<g>
</g>
<g>
</g>
<g>
</g>
<g>
</g>
<g>
</g>
<g>
</g>
<g>
</g>
<g>
</g>
<g>
</g>
<g>
</g>
<g>
</g>
<g>
</g>
<g>
</g>
</svg>
